<svg width="178" height="30" viewBox="0 0 178 30" fill="none" xmlns="http://www.w3.org/2000/svg">
<path d="M50.1196 9.22L41.0296 22H37.8436L46.9336 9.22H50.1196ZM58.041 9.22L48.951 22H45.765L54.855 9.22H58.041ZM59.4873 22V9.22H62.4393V19.408H68.6313V22H59.4873ZM68.9186 19.174C68.9186 18.55 69.0926 18.004 69.4406 17.536C69.7886 17.068 70.2686 16.702 70.8806 16.438C71.4926 16.162 72.1946 16.024 72.9866 16.024C73.3706 16.024 73.7486 16.06 74.1206 16.132C74.4926 16.192 74.8166 16.282 75.0926 16.402V15.988C75.0926 14.92 74.4626 14.386 73.2026 14.386C72.6746 14.386 72.1766 14.476 71.7086 14.656C71.2526 14.836 70.7666 15.094 70.2506 15.43L69.3866 13.594C70.6346 12.778 72.0026 12.37 73.4906 12.37C74.9066 12.37 76.0046 12.712 76.7846 13.396C77.5766 14.068 77.9726 15.046 77.9726 16.33V18.796C77.9726 19.084 78.0146 19.288 78.0986 19.408C78.1946 19.528 78.3566 19.594 78.5846 19.606V22C78.3326 22.048 78.1046 22.084 77.9006 22.108C77.6966 22.132 77.5166 22.144 77.3606 22.144C76.8206 22.144 76.4066 22.036 76.1186 21.82C75.8426 21.604 75.6686 21.31 75.5966 20.938L75.5426 20.524C75.1226 21.064 74.6186 21.478 74.0306 21.766C73.4426 22.042 72.8366 22.18 72.2126 22.18C71.5886 22.18 71.0246 22.048 70.5206 21.784C70.0286 21.52 69.6386 21.166 69.3506 20.722C69.0626 20.266 68.9186 19.75 68.9186 19.174ZM74.6426 19.534C74.9426 19.294 75.0926 19.048 75.0926 18.796V17.95C74.8406 17.854 74.5646 17.782 74.2646 17.734C73.9766 17.674 73.7126 17.644 73.4726 17.644C72.9326 17.644 72.4886 17.764 72.1406 18.004C71.8046 18.244 71.6366 18.55 71.6366 18.922C71.6366 19.246 71.7626 19.528 72.0146 19.768C72.2786 19.996 72.6266 20.11 73.0586 20.11C73.3466 20.11 73.6346 20.056 73.9226 19.948C74.2106 19.84 74.4506 19.702 74.6426 19.534ZM85.7835 15.016C85.0875 15.028 84.4575 15.142 83.8935 15.358C83.3295 15.574 82.9215 15.898 82.6695 16.33V22H79.7895V12.55H82.4355V14.458C82.7595 13.822 83.1795 13.324 83.6955 12.964C84.2115 12.604 84.7515 12.418 85.3155 12.406C85.5555 12.406 85.7115 12.412 85.7835 12.424V15.016ZM86.7265 11.47V8.86H89.6065V11.47H86.7265ZM86.7265 22V12.55H89.6065V22H86.7265ZM94.9261 22.18C94.1101 22.18 93.3181 22.048 92.5501 21.784C91.7941 21.508 91.1521 21.118 90.6241 20.614L91.6141 18.796C92.7781 19.648 93.8521 20.074 94.8361 20.074C95.2081 20.074 95.4961 20.014 95.7001 19.894C95.9041 19.774 96.0061 19.588 96.0061 19.336C96.0061 19.072 95.8681 18.886 95.5921 18.778C95.3161 18.658 94.9081 18.52 94.3681 18.364C93.6481 18.124 93.0481 17.89 92.5681 17.662C92.0881 17.434 91.7281 17.158 91.4881 16.834C91.2481 16.51 91.1281 16.078 91.1281 15.538C91.1281 14.59 91.4821 13.828 92.1901 13.252C92.8981 12.664 93.8581 12.37 95.0701 12.37C95.7181 12.37 96.3481 12.472 96.9601 12.676C97.5841 12.88 98.1661 13.222 98.7061 13.702L97.5901 15.502C97.0501 15.13 96.5701 14.86 96.1501 14.692C95.7301 14.524 95.3221 14.44 94.9261 14.44C94.6141 14.44 94.3501 14.5 94.1341 14.62C93.9181 14.728 93.8101 14.92 93.8101 15.196C93.8101 15.46 93.9301 15.658 94.1701 15.79C94.4101 15.91 94.7821 16.042 95.2861 16.186C96.0541 16.414 96.6961 16.648 97.2121 16.888C97.7401 17.116 98.1301 17.404 98.3821 17.752C98.6461 18.088 98.7781 18.538 98.7781 19.102C98.7781 20.062 98.4301 20.818 97.7341 21.37C97.0381 21.91 96.1021 22.18 94.9261 22.18ZM103.603 22.18C102.787 22.18 101.995 22.048 101.227 21.784C100.471 21.508 99.8294 21.118 99.3014 20.614L100.291 18.796C101.455 19.648 102.529 20.074 103.513 20.074C103.885 20.074 104.173 20.014 104.377 19.894C104.581 19.774 104.683 19.588 104.683 19.336C104.683 19.072 104.545 18.886 104.269 18.778C103.993 18.658 103.585 18.52 103.045 18.364C102.325 18.124 101.725 17.89 101.245 17.662C100.765 17.434 100.405 17.158 100.165 16.834C99.9254 16.51 99.8054 16.078 99.8054 15.538C99.8054 14.59 100.159 13.828 100.867 13.252C101.575 12.664 102.535 12.37 103.747 12.37C104.395 12.37 105.025 12.472 105.637 12.676C106.261 12.88 106.843 13.222 107.383 13.702L106.267 15.502C105.727 15.13 105.247 14.86 104.827 14.692C104.407 14.524 103.999 14.44 103.603 14.44C103.291 14.44 103.027 14.5 102.811 14.62C102.595 14.728 102.487 14.92 102.487 15.196C102.487 15.46 102.607 15.658 102.847 15.79C103.087 15.91 103.459 16.042 103.963 16.186C104.731 16.414 105.373 16.648 105.889 16.888C106.417 17.116 106.807 17.404 107.059 17.752C107.323 18.088 107.455 18.538 107.455 19.102C107.455 20.062 107.107 20.818 106.411 21.37C105.715 21.91 104.779 22.18 103.603 22.18ZM108.069 19.174C108.069 18.55 108.243 18.004 108.591 17.536C108.939 17.068 109.419 16.702 110.031 16.438C110.643 16.162 111.345 16.024 112.137 16.024C112.521 16.024 112.899 16.06 113.271 16.132C113.643 16.192 113.967 16.282 114.243 16.402V15.988C114.243 14.92 113.613 14.386 112.353 14.386C111.825 14.386 111.327 14.476 110.859 14.656C110.403 14.836 109.917 15.094 109.401 15.43L108.537 13.594C109.785 12.778 111.153 12.37 112.641 12.37C114.057 12.37 115.155 12.712 115.935 13.396C116.727 14.068 117.123 15.046 117.123 16.33V18.796C117.123 19.084 117.165 19.288 117.249 19.408C117.345 19.528 117.507 19.594 117.735 19.606V22C117.483 22.048 117.255 22.084 117.051 22.108C116.847 22.132 116.667 22.144 116.511 22.144C115.971 22.144 115.557 22.036 115.269 21.82C114.993 21.604 114.819 21.31 114.747 20.938L114.693 20.524C114.273 21.064 113.769 21.478 113.181 21.766C112.593 22.042 111.987 22.18 111.363 22.18C110.739 22.18 110.175 22.048 109.671 21.784C109.179 21.52 108.789 21.166 108.501 20.722C108.213 20.266 108.069 19.75 108.069 19.174ZM113.793 19.534C114.093 19.294 114.243 19.048 114.243 18.796V17.95C113.991 17.854 113.715 17.782 113.415 17.734C113.127 17.674 112.863 17.644 112.623 17.644C112.083 17.644 111.639 17.764 111.291 18.004C110.955 18.244 110.787 18.55 110.787 18.922C110.787 19.246 110.913 19.528 111.165 19.768C111.429 19.996 111.777 20.11 112.209 20.11C112.497 20.11 112.785 20.056 113.073 19.948C113.361 19.84 113.601 19.702 113.793 19.534ZM130.773 12.964C130.737 12.916 130.611 12.826 130.395 12.694C130.179 12.562 129.909 12.424 129.585 12.28C129.261 12.124 128.907 11.998 128.523 11.902C128.139 11.794 127.755 11.74 127.371 11.74C126.315 11.74 125.787 12.094 125.787 12.802C125.787 13.234 126.015 13.54 126.471 13.72C126.939 13.9 127.605 14.116 128.469 14.368C129.285 14.596 129.987 14.86 130.575 15.16C131.175 15.448 131.637 15.838 131.961 16.33C132.285 16.81 132.447 17.446 132.447 18.238C132.447 18.958 132.315 19.57 132.051 20.074C131.787 20.566 131.427 20.968 130.971 21.28C130.515 21.58 129.999 21.802 129.423 21.946C128.859 22.078 128.271 22.144 127.659 22.144C126.711 22.144 125.751 22.006 124.779 21.73C123.807 21.442 122.949 21.052 122.205 20.56L123.501 17.986C123.549 18.046 123.705 18.16 123.969 18.328C124.233 18.484 124.563 18.652 124.959 18.832C125.355 19.012 125.787 19.168 126.255 19.3C126.735 19.42 127.221 19.48 127.713 19.48C128.757 19.48 129.279 19.162 129.279 18.526C129.279 18.202 129.141 17.95 128.865 17.77C128.601 17.578 128.235 17.416 127.767 17.284C127.299 17.14 126.771 16.978 126.183 16.798C125.007 16.438 124.137 16 123.573 15.484C123.021 14.968 122.745 14.23 122.745 13.27C122.745 12.37 122.955 11.614 123.375 11.002C123.807 10.378 124.383 9.91 125.103 9.598C125.823 9.274 126.609 9.112 127.461 9.112C128.361 9.112 129.213 9.268 130.017 9.58C130.821 9.88 131.505 10.192 132.069 10.516L130.773 12.964ZM138.175 22.18C137.095 22.18 136.177 21.952 135.421 21.496C134.677 21.04 134.107 20.44 133.711 19.696C133.315 18.952 133.117 18.148 133.117 17.284C133.117 16.408 133.315 15.598 133.711 14.854C134.107 14.11 134.683 13.51 135.439 13.054C136.195 12.598 137.107 12.37 138.175 12.37C139.243 12.37 140.155 12.598 140.911 13.054C141.667 13.51 142.243 14.11 142.639 14.854C143.035 15.598 143.233 16.408 143.233 17.284C143.233 18.148 143.035 18.952 142.639 19.696C142.243 20.44 141.667 21.04 140.911 21.496C140.155 21.952 139.243 22.18 138.175 22.18ZM136.069 17.284C136.069 18.016 136.267 18.61 136.663 19.066C137.071 19.522 137.575 19.75 138.175 19.75C138.763 19.75 139.255 19.522 139.651 19.066C140.059 18.61 140.263 18.016 140.263 17.284C140.263 16.552 140.059 15.958 139.651 15.502C139.255 15.046 138.763 14.818 138.175 14.818C137.575 14.818 137.071 15.046 136.663 15.502C136.267 15.958 136.069 16.552 136.069 17.284ZM144.301 18.598V12.55H147.181V17.968C147.181 19.156 147.619 19.75 148.495 19.75C148.879 19.75 149.251 19.648 149.611 19.444C149.971 19.228 150.289 18.874 150.565 18.382V12.55H153.445V18.796C153.445 19.084 153.487 19.288 153.571 19.408C153.667 19.528 153.829 19.594 154.057 19.606V22C153.781 22.048 153.547 22.084 153.355 22.108C153.163 22.132 152.989 22.144 152.833 22.144C151.801 22.144 151.213 21.742 151.069 20.938L151.015 20.362C150.583 20.986 150.043 21.448 149.395 21.748C148.759 22.036 148.045 22.18 147.253 22.18C146.293 22.18 145.561 21.874 145.057 21.262C144.553 20.65 144.301 19.762 144.301 18.598ZM154.848 20.272L159.654 14.548H155.1V12.55H162.678V14.278L157.926 20.002H162.804V22H154.848V20.272ZM163.437 19.174C163.437 18.55 163.611 18.004 163.959 17.536C164.307 17.068 164.787 16.702 165.399 16.438C166.011 16.162 166.713 16.024 167.505 16.024C167.889 16.024 168.267 16.06 168.639 16.132C169.011 16.192 169.335 16.282 169.611 16.402V15.988C169.611 14.92 168.981 14.386 167.721 14.386C167.193 14.386 166.695 14.476 166.227 14.656C165.771 14.836 165.285 15.094 164.769 15.43L163.905 13.594C165.153 12.778 166.521 12.37 168.009 12.37C169.425 12.37 170.523 12.712 171.303 13.396C172.095 14.068 172.491 15.046 172.491 16.33V18.796C172.491 19.084 172.533 19.288 172.617 19.408C172.713 19.528 172.875 19.594 173.103 19.606V22C172.851 22.048 172.623 22.084 172.419 22.108C172.215 22.132 172.035 22.144 171.879 22.144C171.339 22.144 170.925 22.036 170.637 21.82C170.361 21.604 170.187 21.31 170.115 20.938L170.061 20.524C169.641 21.064 169.137 21.478 168.549 21.766C167.961 22.042 167.355 22.18 166.731 22.18C166.107 22.18 165.543 22.048 165.039 21.784C164.547 21.52 164.157 21.166 163.869 20.722C163.581 20.266 163.437 19.75 163.437 19.174ZM169.161 19.534C169.461 19.294 169.611 19.048 169.611 18.796V17.95C169.359 17.854 169.083 17.782 168.783 17.734C168.495 17.674 168.231 17.644 167.991 17.644C167.451 17.644 167.007 17.764 166.659 18.004C166.323 18.244 166.155 18.55 166.155 18.922C166.155 19.246 166.281 19.528 166.533 19.768C166.797 19.996 167.145 20.11 167.577 20.11C167.865 20.11 168.153 20.056 168.441 19.948C168.729 19.84 168.969 19.702 169.161 19.534ZM174.29 22V19.066H176.648V22H174.29Z" fill="#F3F4EF"/>
<path d="M15.5 2.01709L31 28H0L15.5 2.01709Z" fill="#4EC5C1"/>
<path fill-rule="evenodd" clip-rule="evenodd" d="M15.2531 9.22219L5.77986 17.7958L5.77986 10.5759L15.2531 2.00235L15.2531 9.22219ZM24.724 10.579L15.2533 2.00306L15.2533 9.22488L24.7239 17.8008L24.724 10.579Z" fill="#0A66C2"/>
</svg>
