<svg width="40" height="40" viewBox="0 0 40 40" fill="none" xmlns="http://www.w3.org/2000/svg">
<path d="M20 0C19.6729 0 19.3453 0.00781247 19.0188 0.0239583C18.6917 0.0401041 18.3656 0.0640626 18.0396 0.0963542C17.7141 0.128646 17.3891 0.168229 17.0656 0.216667C16.7417 0.264583 16.4193 0.320313 16.0984 0.384375C15.7771 0.447917 15.4578 0.519792 15.1406 0.599479C14.8229 0.678646 14.5073 0.766146 14.1943 0.860938C13.8813 0.95625 13.5703 1.05885 13.262 1.16927C12.9542 1.27917 12.649 1.3974 12.3464 1.5224C12.0438 1.64792 11.7448 1.78021 11.449 1.92031C11.1531 2.06042 10.8609 2.20729 10.5719 2.36146C10.2833 2.51563 9.99844 2.67708 9.71771 2.84531C9.43698 3.01354 9.16094 3.18854 8.88854 3.37083C8.61667 3.5526 8.34896 3.74063 8.08594 3.93594C7.82292 4.13073 7.5651 4.33229 7.31198 4.53958C7.05938 4.7474 6.81146 4.96094 6.56875 5.18073C6.32604 5.40104 6.08906 5.62656 5.85781 5.85781C5.62656 6.08906 5.40104 6.32604 5.18073 6.56875C4.96094 6.81146 4.7474 7.05938 4.53958 7.31198C4.33229 7.5651 4.13073 7.82292 3.93594 8.08594C3.74063 8.34896 3.5526 8.61667 3.37083 8.88854C3.18854 9.16094 3.01354 9.43698 2.84531 9.71771C2.67708 9.99844 2.51563 10.2833 2.36146 10.5719C2.20729 10.8609 2.06042 11.1531 1.92031 11.449C1.78021 11.7448 1.64792 12.0438 1.5224 12.3464C1.3974 12.649 1.27917 12.9542 1.16927 13.262C1.05885 13.5703 0.95625 13.8813 0.860938 14.1943C0.766146 14.5073 0.678646 14.8229 0.599479 15.1406C0.519792 15.4578 0.447917 15.7771 0.384375 16.0984C0.320313 16.4193 0.264583 16.7417 0.216667 17.0656C0.168229 17.3891 0.128646 17.7141 0.0963542 18.0396C0.0640626 18.3656 0.0401041 18.6917 0.0239583 19.0188C0.00781247 19.3453 0 19.6729 0 20C0 20.3271 0.00781247 20.6547 0.0239583 20.9813C0.0401041 21.3083 0.0640626 21.6344 0.0963542 21.9604C0.128646 22.2859 0.168229 22.6109 0.216667 22.9344C0.264583 23.2583 0.320313 23.5807 0.384375 23.9016C0.447917 24.2229 0.519792 24.5422 0.599479 24.8594C0.678646 25.1771 0.766146 25.4927 0.860938 25.8057C0.95625 26.1188 1.05885 26.4297 1.16927 26.738C1.27917 27.0458 1.3974 27.351 1.5224 27.6536C1.64792 27.9563 1.78021 28.2552 1.92031 28.551C2.06042 28.8469 2.20729 29.1391 2.36146 29.4281C2.51563 29.7167 2.67708 30.0016 2.84531 30.2823C3.01354 30.563 3.18854 30.8391 3.37083 31.1115C3.5526 31.3833 3.74063 31.651 3.93594 31.9141C4.13073 32.1771 4.33229 32.4349 4.53958 32.688C4.7474 32.9406 4.96094 33.1885 5.18073 33.4313C5.40104 33.6734 5.62656 33.9109 5.85781 34.1422C6.08906 34.3734 6.32604 34.599 6.56875 34.8193C6.81146 35.0391 7.05938 35.2526 7.31198 35.4604C7.5651 35.6677 7.82292 35.8693 8.08594 36.0641C8.34896 36.2594 8.61667 36.4474 8.88854 36.6292C9.16094 36.8115 9.43698 36.9865 9.71771 37.1547C9.99844 37.3229 10.2833 37.4844 10.5719 37.6385C10.8609 37.7927 11.1531 37.9396 11.449 38.0797C11.7448 38.2198 12.0438 38.3521 12.3464 38.4776C12.649 38.6026 12.9542 38.7208 13.262 38.8307C13.5703 38.9411 13.8813 39.0438 14.1943 39.1385C14.5073 39.2339 14.8229 39.3208 15.1406 39.4005C15.4578 39.4802 15.7771 39.5521 16.0984 39.6156C16.4193 39.6797 16.7417 39.7354 17.0656 39.7833C17.3891 39.8318 17.7141 39.8714 18.0396 39.9036C18.3656 39.9359 18.6917 39.9599 19.0188 39.976C19.3453 39.9922 19.6729 40 20 40C20.3271 40 20.6547 39.9922 20.9813 39.976C21.3083 39.9599 21.6344 39.9359 21.9604 39.9036C22.2859 39.8714 22.6109 39.8318 22.9344 39.7833C23.2583 39.7354 23.5807 39.6797 23.9016 39.6156C24.2229 39.5521 24.5422 39.4802 24.8594 39.4005C25.1771 39.3208 25.4927 39.2339 25.8057 39.1385C26.1188 39.0438 26.4297 38.9411 26.738 38.8307C27.0458 38.7208 27.351 38.6026 27.6536 38.4776C27.9563 38.3521 28.2552 38.2198 28.551 38.0797C28.8469 37.9396 29.1391 37.7927 29.4281 37.6385C29.7167 37.4844 30.0016 37.3229 30.2823 37.1547C30.563 36.9865 30.8391 36.8115 31.1115 36.6292C31.3833 36.4474 31.651 36.2594 31.9141 36.0641C32.1771 35.8693 32.4349 35.6677 32.688 35.4604C32.9406 35.2526 33.1885 35.0391 33.4313 34.8193C33.6734 34.599 33.9109 34.3734 34.1422 34.1422C34.3734 33.9109 34.599 33.6734 34.8193 33.4313C35.0391 33.1885 35.2526 32.9406 35.4604 32.688C35.6677 32.4349 35.8693 32.1771 36.0641 31.9141C36.2594 31.651 36.4474 31.3833 36.6292 31.1115C36.8115 30.8391 36.9865 30.563 37.1547 30.2823C37.3229 30.001 37.4844 29.7167 37.6385 29.4281C37.7927 29.1391 37.9396 28.8469 38.0797 28.551C38.2198 28.2552 38.3521 27.9563 38.4776 27.6536C38.6026 27.351 38.7208 27.0458 38.8307 26.738C38.9411 26.4297 39.0438 26.1188 39.1385 25.8057C39.2339 25.4927 39.3208 25.1771 39.4005 24.8594C39.4802 24.5422 39.5521 24.2229 39.6156 23.9016C39.6797 23.5807 39.7354 23.2583 39.7833 22.9344C39.8318 22.6109 39.8714 22.2859 39.9036 21.9604C39.9359 21.6344 39.9599 21.3083 39.976 20.9813C39.9922 20.6547 40 20.3271 40 20C40 19.6729 39.9922 19.3453 39.976 19.0188C39.9599 18.6917 39.9359 18.3656 39.9036 18.0396C39.8714 17.7141 39.8318 17.3891 39.7833 17.0656C39.7354 16.7417 39.6797 16.4193 39.6156 16.0984C39.5521 15.7771 39.4802 15.4578 39.4005 15.1406C39.3208 14.8229 39.2339 14.5073 39.1385 14.1943C39.0438 13.8813 38.9411 13.5703 38.8307 13.262C38.7208 12.9542 38.6026 12.649 38.4776 12.3464C38.3521 12.0438 38.2198 11.7448 38.0797 11.449C37.9396 11.1531 37.7927 10.8609 37.6385 10.5719C37.4844 10.2833 37.3229 9.99844 37.1547 9.71771C36.9865 9.43698 36.8115 9.16094 36.6292 8.88854C36.4474 8.61667 36.2594 8.34896 36.0641 8.08594C35.8693 7.82292 35.6677 7.5651 35.4604 7.31198C35.2526 7.05938 35.0391 6.81146 34.8193 6.56875C34.599 6.32604 34.3734 6.08906 34.1422 5.85781C33.9109 5.62656 33.6734 5.40104 33.4313 5.18073C33.1885 4.96094 32.9406 4.7474 32.688 4.53958C32.4349 4.33229 32.1771 4.13073 31.9141 3.93594C31.651 3.74063 31.3833 3.5526 31.1115 3.37083C30.8391 3.18854 30.563 3.01354 30.2823 2.84531C30.0016 2.67708 29.7167 2.51563 29.4281 2.36146C29.1391 2.20729 28.8469 2.06042 28.551 1.92031C28.2552 1.78021 27.9563 1.64792 27.6536 1.5224C27.351 1.3974 27.0458 1.27917 26.738 1.16927C26.4297 1.05885 26.1188 0.95625 25.8057 0.860938C25.4927 0.766146 25.1771 0.678646 24.8594 0.599479C24.5422 0.519792 24.2229 0.447917 23.9016 0.384375C23.5807 0.320313 23.2583 0.264583 22.9344 0.216667C22.6109 0.168229 22.2859 0.128646 21.9604 0.0963542C21.6344 0.0640626 21.3083 0.0401041 20.9813 0.0239583C20.6547 0.00781247 20.3271 0 20 0Z" fill="#393536"/>
<path d="M20.0516 10.0594C23.2704 10.0594 23.6511 10.0698 24.925 10.1282C26.098 10.1808 26.7375 10.3766 27.1657 10.5454C27.7261 10.7625 28.1276 11.0266 28.5506 11.4495C28.9735 11.8724 29.2323 12.274 29.4542 12.8339C29.6183 13.2568 29.8136 13.8964 29.8719 15.075C29.9297 16.349 29.9407 16.7292 29.9407 19.948C29.9407 23.1667 29.9297 23.5469 29.8719 24.8209C29.8188 25.9943 29.6235 26.6339 29.4542 27.062C29.2375 27.6219 28.9735 28.0235 28.5506 28.4464C28.1276 28.8693 27.7261 29.1282 27.1657 29.3506C26.7428 29.5141 26.1032 29.7099 24.925 29.7678C23.6511 29.8261 23.2704 29.8365 20.0516 29.8365C16.8334 29.8365 16.4526 29.8261 15.1787 29.7678C14.0058 29.7152 13.3662 29.5193 12.9381 29.3506C12.3776 29.1334 11.9761 28.8693 11.5532 28.4464C11.1303 28.0235 10.8714 27.6219 10.6495 27.062C10.4855 26.6391 10.2901 25.9995 10.2318 24.8209C10.174 23.5469 10.1631 23.1667 10.1631 19.948C10.1631 16.7292 10.174 16.349 10.2318 15.075C10.2849 13.9016 10.4803 13.262 10.6495 12.8339C10.8662 12.274 11.1303 11.8724 11.5532 11.4495C11.9761 11.0266 12.3776 10.7678 12.9381 10.5454C13.361 10.3818 14.0006 10.186 15.1787 10.1282C16.4526 10.0698 16.8334 10.0594 20.0516 10.0594ZM20.0516 7.88702C16.775 7.88702 16.3683 7.90317 15.0787 7.96098C13.7943 8.01932 12.9167 8.22557 12.1506 8.5214C11.3579 8.82817 10.6865 9.24015 10.0151 9.9115C9.34952 10.5829 8.93702 11.2537 8.63077 12.0464C8.33442 12.8131 8.12869 13.6901 8.07036 14.9745C8.01202 16.2589 7.9964 16.6714 7.9964 19.9428C7.9964 23.2193 8.01202 23.6266 8.07036 24.9162C8.12869 26.2006 8.33442 27.0776 8.63077 27.8438C8.93702 28.637 9.34952 29.3079 10.0204 29.9792C10.6917 30.6506 11.3631 31.0625 12.1558 31.3693C12.9219 31.6652 13.7995 31.8714 15.0839 31.9297C16.3683 31.9875 16.7803 32.0037 20.0573 32.0037C23.3339 32.0037 23.7407 31.9875 25.0303 31.9297C26.3146 31.8714 27.1922 31.6652 27.9584 31.3693C28.7511 31.0625 29.4224 30.6506 30.0938 29.9792C30.7651 29.3079 31.1771 28.637 31.4839 27.8438C31.7797 27.0776 31.986 26.2006 32.0438 24.9162C32.1021 23.6318 32.1178 23.2193 32.1178 19.9428C32.1178 16.6657 32.1021 16.2589 32.0438 14.9693C31.986 13.6849 31.7797 12.8079 31.4839 12.0412C31.1771 11.2485 30.7651 10.5771 30.0938 9.90629C29.4224 9.23494 28.7511 8.82244 27.9584 8.51619C27.1922 8.22036 26.3146 8.01411 25.0303 7.95577C23.7407 7.90317 23.3287 7.88702 20.0516 7.88702Z" fill="#D4F4E7"/>
<path d="M20.0516 13.7536C16.6323 13.7536 13.863 16.5229 13.863 19.9427C13.863 23.3619 16.6375 26.1369 20.0573 26.1369C23.4766 26.1369 26.2516 23.3671 26.2516 19.9427C26.2459 16.5229 23.4714 13.7536 20.0516 13.7536ZM20.0516 23.9645C17.8323 23.9645 16.0349 22.1677 16.0349 19.9479C16.0349 17.7281 17.8323 15.9312 20.0516 15.9312C22.2714 15.9312 24.0688 17.7281 24.0688 19.9479C24.074 22.1625 22.2714 23.9645 20.0516 23.9645Z" fill="#D4F4E7"/>
<path d="M27.9375 13.5104C27.9375 14.3089 27.2875 14.9589 26.4891 14.9589C25.6911 14.9589 25.0411 14.3089 25.0411 13.5104C25.0411 12.7125 25.6911 12.0625 26.4891 12.0625C27.2875 12.0625 27.9375 12.7073 27.9375 13.5104Z" fill="#D4F4E7"/>
</svg>
