<svg width="20" height="20" viewBox="0 0 20 20" fill="none" xmlns="http://www.w3.org/2000/svg">
<g clip-path="url(#clip0)">
<path d="M19.2019 12.4011C18.6019 12.4011 18.2019 12.8011 18.2019 13.4011V16.6011C18.2019 17.0011 17.8019 17.4011 17.4019 17.4011H3.0019C2.6019 17.4011 2.2019 17.0011 2.2019 16.6011V13.4011C2.2019 12.8011 1.8019 12.4011 1.2019 12.4011C0.601904 12.4011 0.201904 12.8011 0.201904 13.4011V16.6011C0.201904 18.1011 1.5019 19.4011 3.0019 19.4011H17.4019C18.9019 19.4011 20.2019 18.1011 20.2019 16.6011V13.4011C20.2019 12.8011 19.8019 12.4011 19.2019 12.4011Z" fill="white"/>
<path d="M10.2019 -0.598633C9.60192 -0.598633 9.20192 -0.198633 9.20192 0.401367V10.7014L7.50192 8.70137C7.10192 8.30137 6.50192 8.20137 6.10192 8.60137C5.70192 9.00137 5.60192 9.60137 6.00192 10.0014L9.50192 14.0014C9.70192 14.2014 10.0019 14.3014 10.3019 14.3014C10.6019 14.3014 10.9019 14.2014 11.1019 14.0014L14.6019 10.0014C15.0019 9.60137 14.9019 9.00137 14.5019 8.60137C14.1019 8.20137 13.5019 8.30137 13.1019 8.70137L11.4019 10.7014V0.401367C11.2019 -0.198633 10.8019 -0.598633 10.2019 -0.598633Z" fill="white"/>
</g>
<defs>
<clipPath id="clip0">
<rect width="20" height="20" fill="white"/>
</clipPath>
</defs>
</svg>
