<svg width="40" height="40" viewBox="0 0 40 40" fill="none" xmlns="http://www.w3.org/2000/svg">
<g clip-path="url(#clip0)">
<path d="M33.2464 27.8034H31.3724C29.6597 25.7147 26.085 20.0487 24.2943 17.8105C27.2778 16.0974 30.2613 14.3832 33.2464 12.6701V27.8034ZM9.37144 27.8034C11.2164 25.2167 14.1165 20.1477 15.6745 18.2449C16.8808 18.9773 18.3601 19.7091 19.5679 20.443C19.6924 20.5201 19.8544 20.5164 19.9794 20.443C21.2717 19.7039 22.2889 18.9606 23.5802 18.2189C25.1839 20.1617 28.4591 25.324 30.3426 27.8034H9.37144ZM6.75356 27.8034V12.8274C9.49281 14.49 12.2336 16.1552 14.9739 17.8199C13.2582 19.9971 10.1173 25.5381 8.36513 27.8034H6.75356ZM32.6974 12.1982C28.1195 14.6718 24.0849 17.1449 19.7799 19.6179C19.7445 19.5961 19.7013 19.57 19.6471 19.5377C19.1929 19.2622 18.7398 18.9861 18.2845 18.7106C16.7605 17.785 14.965 16.861 13.442 15.9339C11.3919 14.6895 9.34123 13.4446 7.56403 12.1982H32.6974ZM19.9992 0C8.95319 0 0 8.95527 0 20.0008C0 31.0463 8.95319 40.001 19.9992 40.001C31.0452 40.001 40 31.0463 40 20.0008C40 8.95527 31.0452 0 19.9992 0Z" fill="#393536"/>
</g>
<defs>
<clipPath id="clip0">
<rect width="40" height="40" fill="white"/>
</clipPath>
</defs>
</svg>
