<?xml version="1.0" encoding="UTF-8"?>
<svg xmlns="http://www.w3.org/2000/svg" xmlns:xlink="http://www.w3.org/1999/xlink" width="375pt" height="374.999991pt" viewBox="0 0 375 374.999991" version="1.2">
<defs>
<clipPath id="clip1">
  <path d="M 129 47.4375 L 329 47.4375 L 329 226 L 129 226 Z M 129 47.4375 "/>
</clipPath>
<clipPath id="clip2">
  <path d="M 47 149 L 247 149 L 247 327.9375 L 47 327.9375 Z M 47 149 "/>
</clipPath>
</defs>
<g id="surface1">
<g clip-path="url(#clip1)" clip-rule="nonzero">
<path style=" stroke:none;fill-rule:nonzero;fill:rgb(100%,100%,100%);fill-opacity:1;" d="M 255.371094 156.789062 L 294.070312 127.097656 C 300.929688 121.839844 305.320312 114.238281 306.453125 105.664062 C 307.585938 97.085938 305.320312 88.597656 300.074219 81.738281 C 293.910156 73.6875 284.558594 69.0625 274.402344 69.0625 C 267.261719 69.0625 260.476562 71.367188 254.789062 75.726562 L 163.503906 145.753906 C 154.597656 152.601562 149.917969 163.347656 150.992188 174.53125 C 152.585938 191.207031 166.398438 203.785156 183.101562 203.785156 L 183.113281 203.785156 C 184.136719 203.785156 185.175781 203.734375 186.226562 203.644531 C 192.359375 203.074219 197.539062 207.503906 198.117188 213.484375 C 198.691406 219.457031 194.292969 224.792969 188.308594 225.363281 C 186.554688 225.527344 184.808594 225.617188 183.082031 225.617188 C 155.09375 225.617188 131.972656 204.550781 129.292969 176.621094 C 127.503906 157.886719 135.335938 139.890625 150.242188 128.4375 L 241.53125 58.410156 C 251.0625 51.109375 262.421875 47.238281 274.390625 47.238281 C 291.386719 47.238281 307.054688 54.972656 317.378906 68.464844 C 335.519531 92.1875 331.011719 126.25 307.332031 144.414062 L 268.640625 174.097656 C 263.988281 177.671875 256.910156 176.699219 253.363281 172.074219 C 251.59375 169.761719 250.816406 166.894531 251.210938 164.003906 C 251.585938 161.113281 253.074219 158.5625 255.371094 156.789062 Z M 255.371094 156.789062 "/>
</g>
<path style=" stroke:none;fill-rule:nonzero;fill:rgb(100%,100%,100%);fill-opacity:1;" d="M 255.914062 170.117188 C 258.40625 173.371094 263.390625 174.03125 266.652344 171.539062 L 305.351562 141.855469 C 327.621094 124.773438 331.871094 92.738281 314.816406 70.441406 C 305.113281 57.757812 290.382812 50.480469 274.398438 50.480469 C 263.148438 50.480469 252.460938 54.121094 243.511719 60.976562 L 152.234375 131.011719 C 138.210938 141.769531 130.847656 158.691406 132.535156 176.304688 C 135.195312 204.199219 159.511719 224.910156 188.015625 222.132812 C 192.214844 221.734375 195.320312 217.980469 194.90625 213.769531 C 194.527344 209.816406 191.253906 206.832031 187.28125 206.832031 C 187.039062 206.832031 186.792969 206.84375 186.542969 206.867188 C 166.796875 208.714844 149.648438 194.320312 147.777344 174.847656 C 146.601562 162.550781 151.742188 150.710938 161.539062 143.195312 L 252.828125 73.15625 C 259.089844 68.367188 266.550781 65.816406 274.417969 65.816406 C 285.582031 65.816406 295.867188 70.902344 302.648438 79.769531 C 308.425781 87.308594 310.910156 96.652344 309.675781 106.082031 C 308.425781 115.503906 303.59375 123.878906 296.054688 129.671875 L 257.363281 159.367188 C 255.734375 160.597656 254.691406 162.417969 254.425781 164.429688 C 254.140625 166.472656 254.679688 168.480469 255.914062 170.117188 Z M 255.914062 170.117188 "/>
<g clip-path="url(#clip2)" clip-rule="nonzero">
<path style=" stroke:none;fill-rule:nonzero;fill:rgb(100%,100%,100%);fill-opacity:1;" d="M 68.308594 230.292969 L 107.015625 200.609375 C 111.660156 197.054688 118.742188 198.007812 122.289062 202.640625 C 125.929688 207.417969 125.039062 214.28125 120.261719 217.933594 L 81.5625 247.617188 C 67.421875 258.472656 64.730469 278.8125 75.558594 292.976562 C 81.726562 301.035156 91.074219 305.652344 101.238281 305.652344 C 108.378906 305.652344 115.160156 303.351562 120.847656 298.988281 L 212.128906 228.964844 C 221.039062 222.132812 225.722656 211.378906 224.648438 200.195312 C 222.945312 182.472656 207.414062 169.289062 189.410156 171.085938 C 183.417969 171.671875 178.09375 167.234375 177.523438 161.261719 C 177.246094 158.367188 178.113281 155.515625 179.964844 153.28125 C 181.8125 151.027344 184.425781 149.636719 187.339844 149.371094 C 189.089844 149.207031 190.832031 149.117188 192.566406 149.117188 C 220.550781 149.117188 243.671875 170.183594 246.351562 198.109375 C 248.136719 216.84375 240.296875 234.855469 225.398438 246.292969 L 134.121094 316.324219 C 124.589844 323.636719 113.230469 327.496094 101.257812 327.496094 C 84.261719 327.496094 68.59375 319.753906 58.265625 306.269531 C 40.132812 282.53125 44.636719 248.464844 68.308594 230.292969 Z M 68.308594 230.292969 "/>
</g>
<path style=" stroke:none;fill-rule:nonzero;fill:rgb(100%,100%,100%);fill-opacity:1;" d="M 60.835938 304.273438 C 70.539062 316.964844 85.265625 324.238281 101.25 324.238281 C 112.507812 324.238281 123.1875 320.605469 132.140625 313.738281 L 223.425781 243.714844 C 237.449219 232.949219 244.8125 216.023438 243.128906 198.410156 C 240.613281 172.148438 218.875 152.34375 192.566406 152.34375 C 190.941406 152.34375 189.296875 152.425781 187.640625 152.582031 C 185.617188 152.769531 183.761719 153.761719 182.460938 155.34375 C 181.160156 156.921875 180.550781 158.910156 180.738281 160.953125 C 181.148438 165.148438 184.757812 168.335938 189.097656 167.84375 C 208.847656 165.921875 226.003906 180.394531 227.867188 199.878906 C 229.058594 212.167969 223.910156 224.015625 214.101562 231.53125 L 122.824219 301.550781 C 116.5625 306.359375 109.105469 308.890625 101.238281 308.890625 C 90.0625 308.890625 79.777344 303.808594 73 294.953125 C 61.082031 279.363281 64.039062 256.984375 79.597656 245.050781 L 118.304688 215.367188 C 121.660156 212.796875 122.292969 207.964844 119.738281 204.613281 C 117.230469 201.363281 112.246094 200.6875 109 203.183594 L 70.292969 232.867188 C 48.03125 249.941406 43.78125 281.976562 60.835938 304.273438 Z M 60.835938 304.273438 "/>
</g>
</svg>
