<svg width="20" height="20" viewBox="0 0 20 20" fill="none" xmlns="http://www.w3.org/2000/svg">
<g clip-path="url(#clip0)">
<path d="M10.5565 9.02225V8.99146C10.5501 9.00129 10.5433 9.01216 10.5363 9.02225H10.5565Z" fill="white"/>
<path d="M18.3239 0.00146484H1.27942C0.463232 0.00146484 -0.19809 0.643481 -0.19809 1.43397V18.569C-0.19809 19.36 0.463493 20.0015 1.27942 20.0015H18.3239C19.1409 20.0015 19.8019 19.3592 19.8019 18.569V1.43397C19.8024 0.6427 19.1403 0.00146484 18.3239 0.00146484ZM5.8642 16.7443H2.84352V7.71319H5.86472V16.7443H5.8642ZM4.35399 6.47935H4.33384C3.32041 6.47935 2.66485 5.78533 2.66485 4.91917C2.66485 4.03324 3.34082 3.35898 4.37387 3.35898C5.40771 3.35898 6.04313 4.03324 6.06327 4.91917C6.06327 5.78585 5.40692 6.47935 4.35399 6.47935ZM16.7574 16.7443H13.7365V11.9116C13.7365 10.6981 13.2994 9.86963 12.2064 9.86963C11.3722 9.86963 10.8751 10.4287 10.6562 10.9677C10.5766 11.1604 10.557 11.4296 10.557 11.6997V16.7438H7.53633C7.53633 16.7438 7.57584 8.55907 7.53633 7.71241H10.557V8.99098C10.9586 8.37575 11.6764 7.49971 13.28 7.49971C15.2674 7.49971 16.7582 8.79076 16.7582 11.5645L16.7574 16.7443Z" fill="white"/>
</g>
<defs>
<clipPath id="clip0">
<rect width="20" height="20" fill="white"/>
</clipPath>
</defs>
</svg>
