<svg width="250" height="38" viewBox="0 0 250 38" fill="none" xmlns="http://www.w3.org/2000/svg">
<path d="M58.0325 9.54L44.9025 28H40.3005L53.4305 9.54H58.0325ZM69.4746 9.54L56.3446 28H51.7426L64.8726 9.54H69.4746ZM71.5637 28V9.54H75.8277V24.256H84.7717V28H71.5637ZM85.1867 23.918C85.1867 23.0167 85.438 22.228 85.9407 21.552C86.4434 20.876 87.1367 20.3473 88.0207 19.966C88.9047 19.5673 89.9187 19.368 91.0627 19.368C91.6174 19.368 92.1634 19.42 92.7007 19.524C93.238 19.6107 93.706 19.7407 94.1047 19.914V19.316C94.1047 17.7733 93.1947 17.002 91.3747 17.002C90.612 17.002 89.8927 17.132 89.2167 17.392C88.558 17.652 87.856 18.0247 87.1107 18.51L85.8627 15.858C87.6654 14.6793 89.6414 14.09 91.7907 14.09C93.836 14.09 95.422 14.584 96.5487 15.572C97.6927 16.5427 98.2647 17.9553 98.2647 19.81V23.372C98.2647 23.788 98.3254 24.0827 98.4467 24.256C98.5854 24.4293 98.8194 24.5247 99.1487 24.542V28C98.7847 28.0693 98.4554 28.1213 98.1607 28.156C97.866 28.1907 97.606 28.208 97.3807 28.208C96.6007 28.208 96.0027 28.052 95.5867 27.74C95.188 27.428 94.9367 27.0033 94.8327 26.466L94.7547 25.868C94.148 26.648 93.42 27.246 92.5707 27.662C91.7214 28.0607 90.846 28.26 89.9447 28.26C89.0434 28.26 88.2287 28.0693 87.5007 27.688C86.79 27.3067 86.2267 26.7953 85.8107 26.154C85.3947 25.4953 85.1867 24.75 85.1867 23.918ZM93.4547 24.438C93.888 24.0913 94.1047 23.736 94.1047 23.372V22.15C93.7407 22.0113 93.342 21.9073 92.9087 21.838C92.4927 21.7513 92.1114 21.708 91.7647 21.708C90.9847 21.708 90.3434 21.8813 89.8407 22.228C89.3554 22.5747 89.1127 23.0167 89.1127 23.554C89.1127 24.022 89.2947 24.4293 89.6587 24.776C90.04 25.1053 90.5427 25.27 91.1667 25.27C91.5827 25.27 91.9987 25.192 92.4147 25.036C92.8307 24.88 93.1774 24.6807 93.4547 24.438ZM109.547 17.912C108.542 17.9293 107.632 18.094 106.817 18.406C106.002 18.718 105.413 19.186 105.049 19.81V28H100.889V14.35H104.711V17.106C105.179 16.1873 105.786 15.468 106.531 14.948C107.276 14.428 108.056 14.1593 108.871 14.142C109.218 14.142 109.443 14.1507 109.547 14.168V17.912ZM110.909 12.79V9.02H115.069V12.79H110.909ZM110.909 28V14.35H115.069V28H110.909ZM122.753 28.26C121.574 28.26 120.43 28.0693 119.321 27.688C118.229 27.2893 117.302 26.726 116.539 25.998L117.969 23.372C119.65 24.6027 121.202 25.218 122.623 25.218C123.16 25.218 123.576 25.1313 123.871 24.958C124.166 24.7847 124.313 24.516 124.313 24.152C124.313 23.7707 124.114 23.502 123.715 23.346C123.316 23.1727 122.727 22.9733 121.947 22.748C120.907 22.4013 120.04 22.0633 119.347 21.734C118.654 21.4047 118.134 21.006 117.787 20.538C117.44 20.07 117.267 19.446 117.267 18.666C117.267 17.2967 117.778 16.196 118.801 15.364C119.824 14.5147 121.21 14.09 122.961 14.09C123.897 14.09 124.807 14.2373 125.691 14.532C126.592 14.8267 127.433 15.3207 128.213 16.014L126.601 18.614C125.821 18.0767 125.128 17.6867 124.521 17.444C123.914 17.2013 123.325 17.08 122.753 17.08C122.302 17.08 121.921 17.1667 121.609 17.34C121.297 17.496 121.141 17.7733 121.141 18.172C121.141 18.5533 121.314 18.8393 121.661 19.03C122.008 19.2033 122.545 19.394 123.273 19.602C124.382 19.9313 125.31 20.2693 126.055 20.616C126.818 20.9453 127.381 21.3613 127.745 21.864C128.126 22.3493 128.317 22.9993 128.317 23.814C128.317 25.2007 127.814 26.2927 126.809 27.09C125.804 27.87 124.452 28.26 122.753 28.26ZM135.287 28.26C134.108 28.26 132.964 28.0693 131.855 27.688C130.763 27.2893 129.836 26.726 129.073 25.998L130.503 23.372C132.184 24.6027 133.736 25.218 135.157 25.218C135.694 25.218 136.11 25.1313 136.405 24.958C136.7 24.7847 136.847 24.516 136.847 24.152C136.847 23.7707 136.648 23.502 136.249 23.346C135.85 23.1727 135.261 22.9733 134.481 22.748C133.441 22.4013 132.574 22.0633 131.881 21.734C131.188 21.4047 130.668 21.006 130.321 20.538C129.974 20.07 129.801 19.446 129.801 18.666C129.801 17.2967 130.312 16.196 131.335 15.364C132.358 14.5147 133.744 14.09 135.495 14.09C136.431 14.09 137.341 14.2373 138.225 14.532C139.126 14.8267 139.967 15.3207 140.747 16.014L139.135 18.614C138.355 18.0767 137.662 17.6867 137.055 17.444C136.448 17.2013 135.859 17.08 135.287 17.08C134.836 17.08 134.455 17.1667 134.143 17.34C133.831 17.496 133.675 17.7733 133.675 18.172C133.675 18.5533 133.848 18.8393 134.195 19.03C134.542 19.2033 135.079 19.394 135.807 19.602C136.916 19.9313 137.844 20.2693 138.589 20.616C139.352 20.9453 139.915 21.3613 140.279 21.864C140.66 22.3493 140.851 22.9993 140.851 23.814C140.851 25.2007 140.348 26.2927 139.343 27.09C138.338 27.87 136.986 28.26 135.287 28.26ZM141.737 23.918C141.737 23.0167 141.988 22.228 142.491 21.552C142.993 20.876 143.687 20.3473 144.571 19.966C145.455 19.5673 146.469 19.368 147.613 19.368C148.167 19.368 148.713 19.42 149.251 19.524C149.788 19.6107 150.256 19.7407 150.655 19.914V19.316C150.655 17.7733 149.745 17.002 147.925 17.002C147.162 17.002 146.443 17.132 145.767 17.392C145.108 17.652 144.406 18.0247 143.661 18.51L142.413 15.858C144.215 14.6793 146.191 14.09 148.341 14.09C150.386 14.09 151.972 14.584 153.099 15.572C154.243 16.5427 154.815 17.9553 154.815 19.81V23.372C154.815 23.788 154.875 24.0827 154.997 24.256C155.135 24.4293 155.369 24.5247 155.699 24.542V28C155.335 28.0693 155.005 28.1213 154.711 28.156C154.416 28.1907 154.156 28.208 153.931 28.208C153.151 28.208 152.553 28.052 152.137 27.74C151.738 27.428 151.487 27.0033 151.383 26.466L151.305 25.868C150.698 26.648 149.97 27.246 149.121 27.662C148.271 28.0607 147.396 28.26 146.495 28.26C145.593 28.26 144.779 28.0693 144.051 27.688C143.34 27.3067 142.777 26.7953 142.361 26.154C141.945 25.4953 141.737 24.75 141.737 23.918ZM150.005 24.438C150.438 24.0913 150.655 23.736 150.655 23.372V22.15C150.291 22.0113 149.892 21.9073 149.459 21.838C149.043 21.7513 148.661 21.708 148.315 21.708C147.535 21.708 146.893 21.8813 146.391 22.228C145.905 22.5747 145.663 23.0167 145.663 23.554C145.663 24.022 145.845 24.4293 146.209 24.776C146.59 25.1053 147.093 25.27 147.717 25.27C148.133 25.27 148.549 25.192 148.965 25.036C149.381 24.88 149.727 24.6807 150.005 24.438ZM174.531 14.948C174.479 14.8787 174.297 14.7487 173.985 14.558C173.673 14.3673 173.283 14.168 172.815 13.96C172.347 13.7347 171.836 13.5527 171.281 13.414C170.727 13.258 170.172 13.18 169.617 13.18C168.092 13.18 167.329 13.6913 167.329 14.714C167.329 15.338 167.659 15.78 168.317 16.04C168.993 16.3 169.955 16.612 171.203 16.976C172.382 17.3053 173.396 17.6867 174.245 18.12C175.112 18.536 175.779 19.0993 176.247 19.81C176.715 20.5033 176.949 21.422 176.949 22.566C176.949 23.606 176.759 24.49 176.377 25.218C175.996 25.9287 175.476 26.5093 174.817 26.96C174.159 27.3933 173.413 27.714 172.581 27.922C171.767 28.1127 170.917 28.208 170.033 28.208C168.664 28.208 167.277 28.0087 165.873 27.61C164.469 27.194 163.23 26.6307 162.155 25.92L164.027 22.202C164.097 22.2887 164.322 22.4533 164.703 22.696C165.085 22.9213 165.561 23.164 166.133 23.424C166.705 23.684 167.329 23.9093 168.005 24.1C168.699 24.2733 169.401 24.36 170.111 24.36C171.619 24.36 172.373 23.9007 172.373 22.982C172.373 22.514 172.174 22.15 171.775 21.89C171.394 21.6127 170.865 21.3787 170.189 21.188C169.513 20.98 168.751 20.746 167.901 20.486C166.203 19.966 164.946 19.3333 164.131 18.588C163.334 17.8427 162.935 16.7767 162.935 15.39C162.935 14.09 163.239 12.998 163.845 12.114C164.469 11.2127 165.301 10.5367 166.341 10.086C167.381 9.618 168.517 9.384 169.747 9.384C171.047 9.384 172.278 9.60933 173.439 10.06C174.601 10.4933 175.589 10.944 176.403 11.412L174.531 14.948ZM185.224 28.26C183.664 28.26 182.338 27.9307 181.246 27.272C180.171 26.6133 179.348 25.7467 178.776 24.672C178.204 23.5973 177.918 22.436 177.918 21.188C177.918 19.9227 178.204 18.7527 178.776 17.678C179.348 16.6033 180.18 15.7367 181.272 15.078C182.364 14.4193 183.681 14.09 185.224 14.09C186.766 14.09 188.084 14.4193 189.176 15.078C190.268 15.7367 191.1 16.6033 191.672 17.678C192.244 18.7527 192.53 19.9227 192.53 21.188C192.53 22.436 192.244 23.5973 191.672 24.672C191.1 25.7467 190.268 26.6133 189.176 27.272C188.084 27.9307 186.766 28.26 185.224 28.26ZM182.182 21.188C182.182 22.2453 182.468 23.1033 183.04 23.762C183.629 24.4207 184.357 24.75 185.224 24.75C186.073 24.75 186.784 24.4207 187.356 23.762C187.945 23.1033 188.24 22.2453 188.24 21.188C188.24 20.1307 187.945 19.2727 187.356 18.614C186.784 17.9553 186.073 17.626 185.224 17.626C184.357 17.626 183.629 17.9553 183.04 18.614C182.468 19.2727 182.182 20.1307 182.182 21.188ZM194.073 23.086V14.35H198.233V22.176C198.233 23.892 198.865 24.75 200.131 24.75C200.685 24.75 201.223 24.6027 201.743 24.308C202.263 23.996 202.722 23.4847 203.121 22.774V14.35H207.281V23.372C207.281 23.788 207.341 24.0827 207.463 24.256C207.601 24.4293 207.835 24.5247 208.165 24.542V28C207.766 28.0693 207.428 28.1213 207.151 28.156C206.873 28.1907 206.622 28.208 206.397 28.208C204.906 28.208 204.057 27.6273 203.849 26.466L203.771 25.634C203.147 26.5353 202.367 27.2027 201.431 27.636C200.512 28.052 199.481 28.26 198.337 28.26C196.95 28.26 195.893 27.818 195.165 26.934C194.437 26.05 194.073 24.7673 194.073 23.086ZM209.307 25.504L216.249 17.236H209.671V14.35H220.617V16.846L213.753 25.114H220.799V28H209.307V25.504ZM221.713 23.918C221.713 23.0167 221.964 22.228 222.467 21.552C222.97 20.876 223.663 20.3473 224.547 19.966C225.431 19.5673 226.445 19.368 227.589 19.368C228.144 19.368 228.69 19.42 229.227 19.524C229.764 19.6107 230.232 19.7407 230.631 19.914V19.316C230.631 17.7733 229.721 17.002 227.901 17.002C227.138 17.002 226.419 17.132 225.743 17.392C225.084 17.652 224.382 18.0247 223.637 18.51L222.389 15.858C224.192 14.6793 226.168 14.09 228.317 14.09C230.362 14.09 231.948 14.584 233.075 15.572C234.219 16.5427 234.791 17.9553 234.791 19.81V23.372C234.791 23.788 234.852 24.0827 234.973 24.256C235.112 24.4293 235.346 24.5247 235.675 24.542V28C235.311 28.0693 234.982 28.1213 234.687 28.156C234.392 28.1907 234.132 28.208 233.907 28.208C233.127 28.208 232.529 28.052 232.113 27.74C231.714 27.428 231.463 27.0033 231.359 26.466L231.281 25.868C230.674 26.648 229.946 27.246 229.097 27.662C228.248 28.0607 227.372 28.26 226.471 28.26C225.57 28.26 224.755 28.0693 224.027 27.688C223.316 27.3067 222.753 26.7953 222.337 26.154C221.921 25.4953 221.713 24.75 221.713 23.918ZM229.981 24.438C230.414 24.0913 230.631 23.736 230.631 23.372V22.15C230.267 22.0113 229.868 21.9073 229.435 21.838C229.019 21.7513 228.638 21.708 228.291 21.708C227.511 21.708 226.87 21.8813 226.367 22.228C225.882 22.5747 225.639 23.0167 225.639 23.554C225.639 24.022 225.821 24.4293 226.185 24.776C226.566 25.1053 227.069 25.27 227.693 25.27C228.109 25.27 228.525 25.192 228.941 25.036C229.357 24.88 229.704 24.6807 229.981 24.438Z" fill="#F3F4EF"/>
<path d="M20 1L37.3205 31H2.67949L20 1Z" fill="#4EC5C1"/>
<path fill-rule="evenodd" clip-rule="evenodd" d="M19.9229 10.2186L8.97579 21.1656V11.9471L19.9229 1V10.2186ZM30.8699 11.9471L19.9229 1.00009L19.9229 10.2187L30.8699 21.1657L30.8699 11.9471Z" fill="#0A66C2"/>
</svg>
