<svg width="90" height="90" viewBox="0 0 90 90" fill="none" xmlns="http://www.w3.org/2000/svg">
<path d="M13.2286 80.2428L6.15938 0.950684H83.8406L76.7644 80.2308L44.9529 89.0501L13.2286 80.2428Z" fill="#DF2446"/>
<path d="M45.0007 82.3091L70.7062 75.1823L76.7538 7.43335H45.0007V82.3091Z" fill="#DF2446"/>
<path d="M45.0007 36.1611H57.8693L58.758 26.2027H45.0007V16.4778H69.3865L69.153 19.0871L66.7624 45.886H45.0007V36.1611Z" fill="white"/>
<path d="M45.0584 61.4173L45.0155 61.43L34.1852 58.5057L33.4927 50.7495H23.7319L25.0938 66.0193L45.0141 71.5479L45.0584 71.5353V61.4173Z" fill="#EBEBEB"/>
<path d="M57.0424 45.4746L55.871 58.4979L45.0246 61.4257V71.5437L64.961 66.0185L65.1073 64.3753L66.799 45.4746H57.0424Z" fill="white"/>
<path d="M45.0338 16.4778V26.2027H21.5437L21.349 24.0174L20.906 19.0871L20.6733 16.4778H45.0338ZM45.0007 36.1625V45.8874H34.3069L34.1121 43.7021L33.6684 38.7718L33.4364 36.1625H45.0007Z" fill="#EBEBEB"/>
</svg>
