<svg width="90" height="90" viewBox="0 0 90 90" fill="none" xmlns="http://www.w3.org/2000/svg">
<g clip-path="url(#clip0)">
<path d="M28.0727 90C37.4929 90 45.1383 83.28 45.1383 75V60H28.0727C18.6525 60 11.0072 66.72 11.0072 75C11.0072 83.28 18.6525 90 28.0727 90Z" fill="#DF2446"/>
<path d="M11.0072 45C11.0072 36.72 18.6525 30 28.0727 30H45.1383V60H28.0727C18.6525 60 11.0072 53.28 11.0072 45Z" fill="#DF2446"/>
<path d="M11.0103 15C11.0103 6.72 18.6557 0 28.0759 0H45.1414V30H28.0759C18.6557 30 11.0103 23.28 11.0103 15Z" fill="#DF2446"/>
<path d="M45.1379 0H62.2035C71.6237 0 79.269 6.72 79.269 15C79.269 23.28 71.6237 30 62.2035 30H45.1379V0Z" fill="#DF2446"/>
<path d="M79.269 45C79.269 53.28 71.6237 60 62.2035 60C52.7833 60 45.1379 53.28 45.1379 45C45.1379 36.72 52.7833 30 62.2035 30C71.6237 30 79.269 36.72 79.269 45Z" fill="#DF2446"/>
</g>
<defs>
<clipPath id="clip0">
<rect width="68.2759" height="90" fill="white" transform="translate(11)"/>
</clipPath>
</defs>
</svg>
