<svg width="91" height="90" viewBox="0 0 91 90" fill="none" xmlns="http://www.w3.org/2000/svg">
<path d="M13.465 80.0692L6.41394 1.16797H83.8916L76.8328 80.0572L45.1056 88.8322L13.465 80.0692Z" fill="#DF2446"/>
<path d="M45.1528 82.1256L70.7903 75.0338L76.8222 7.61963H45.1528V82.1256Z" fill="#DF2446"/>
<path d="M45.1528 36.8824H32.3178L31.4312 26.9726H45.1528V17.2961H20.8311L21.0636 19.8921L23.4471 46.5595H45.1528V36.8824ZM45.1528 62.0142L45.1098 62.0262L34.308 59.1152L33.6181 51.3984H23.8805L25.2393 66.5923L45.1084 72.0949L45.1528 72.083V62.0142Z" fill="#EBEBEB"/>
<path d="M45.119 36.8824V46.5595H57.0624L55.9369 59.1096L45.119 62.0226V72.0907L65.0035 66.5923L65.1494 64.9575L67.4286 39.4811L67.6647 36.8824H65.0515H45.119ZM45.119 17.2961V26.9726H68.5477L68.7423 24.7985L69.1848 19.8921L69.4167 17.2961H45.119Z" fill="white"/>
</svg>
