<svg width="91" height="91" viewBox="0 0 91 91" fill="none" xmlns="http://www.w3.org/2000/svg">
<path d="M31.3991 69.4187C31.3991 69.4187 28.0473 71.3692 33.7876 72.0273C40.7429 72.8219 44.2972 72.708 51.9599 71.2595C51.9599 71.2595 53.9786 72.5216 56.7925 73.6157C39.6088 80.9774 17.904 73.1889 31.3991 69.4187ZM29.2982 59.8105C29.2982 59.8105 25.5379 62.5942 31.2831 63.1891C38.713 63.9562 44.5792 64.0187 54.7351 62.0641C54.7351 62.0641 56.1364 63.4879 58.3436 64.2655C37.5718 70.3405 14.4362 64.7437 29.2982 59.8105Z" fill="#DF2446"/>
<path d="M46.9979 43.5092C51.2343 48.3853 45.887 52.7693 45.887 52.7693C45.887 52.7693 56.6371 47.221 51.7011 40.2699C47.0893 33.7906 43.554 30.5724 62.6945 19.4714C62.6945 19.4721 32.6493 26.9738 46.9979 43.5092Z" fill="#DF2446"/>
<path d="M69.7236 76.5266C69.7236 76.5266 72.205 78.5727 66.9899 80.1541C57.0744 83.1578 25.7122 84.0634 17.0019 80.2743C13.8723 78.9116 19.7434 77.0223 21.5905 76.6237C23.5164 76.2067 24.6161 76.2827 24.6161 76.2827C21.1335 73.8309 2.10691 81.0991 14.953 83.1838C49.9834 88.8623 78.8087 80.6266 69.7236 76.5266ZM33.0128 49.8536C33.0128 49.8536 17.0617 53.6427 27.3646 55.0201C31.7155 55.6023 40.385 55.4687 48.4661 54.7909C55.0684 54.2362 61.694 53.0514 61.694 53.0514C61.694 53.0514 59.368 54.0491 57.6833 55.198C41.4819 59.4597 10.1914 57.4748 19.2006 53.1182C26.8168 49.4345 33.0128 49.8536 33.0128 49.8536ZM61.6279 65.8476C78.0957 57.2927 70.4809 49.071 65.166 50.1784C63.8666 50.4491 63.2837 50.6847 63.2837 50.6847C63.2837 50.6847 63.7675 49.926 64.69 49.5998C75.2038 45.9048 83.2883 60.5003 61.2988 66.2814C61.2988 66.28 61.5512 66.0515 61.6279 65.8476Z" fill="#DF2446"/>
<path d="M51.7011 1.54395C51.7011 1.54395 60.8193 10.6677 43.0506 24.6929C28.8011 35.9471 39.8014 42.3625 43.0457 49.6954C34.727 42.1909 28.6253 35.5836 32.7182 29.4348C38.7285 20.4109 55.3792 16.0339 51.7011 1.54395Z" fill="#DF2446"/>
<path d="M34.6314 89.0365C50.4348 90.0469 74.7095 88.474 75.284 80.9956C75.284 80.9956 74.1794 83.8306 62.222 86.0799C48.7319 88.6196 32.0903 88.3236 22.2233 86.6944C22.2233 86.6951 24.2448 88.3686 34.6314 89.0365Z" fill="#DF2446"/>
</svg>
