<svg width="90" height="85" viewBox="0 0 90 85" fill="none" xmlns="http://www.w3.org/2000/svg">
<path d="M5 0V80H85V0H5ZM47.3162 68.1683C46.1354 70.5677 43.8813 72.144 41.2694 72.905C37.256 73.8266 33.4173 73.3011 30.5616 71.5872C28.6506 70.4147 27.1581 68.6099 26.145 66.5306L32.2378 62.7994C32.2909 62.8218 32.4509 63.111 32.6646 63.4848C33.4416 64.7866 34.1117 65.7082 35.4288 66.3552C36.7229 66.7968 39.5638 67.079 40.6608 64.8019C41.3309 63.6435 41.1178 59.92 41.1178 55.8003C41.1171 49.3267 41.1472 42.88 41.1472 36.48H48.641C48.641 43.52 48.6794 50.1875 48.641 57.0573C48.657 61.2685 49.0224 65.0227 47.3162 68.1683ZM78.4035 66.0512C75.7987 74.9613 61.2758 75.2506 55.4723 69.3638C54.2461 67.9782 53.4774 67.2544 52.7459 65.655C55.8301 63.881 55.8301 63.881 58.831 62.1446C60.4611 64.6502 61.9683 66.0282 64.68 66.592C68.3587 67.0413 72.0598 65.7773 71.2298 61.8701C70.3766 58.679 63.697 57.9027 59.151 54.4902C54.536 51.3907 53.4544 43.8592 57.247 39.5558C58.511 37.9642 60.6666 36.7763 62.9283 36.2054L65.2886 35.9002C69.8205 35.8086 72.6531 37.0054 74.7325 39.3274C75.311 39.9136 75.7834 40.5459 76.6666 41.9162C74.2525 43.4547 74.2602 43.44 70.8022 45.6787C70.0637 44.0877 68.8381 43.0893 67.5427 42.6554C65.5318 42.0461 62.9962 42.7085 62.4701 44.8333C62.2877 45.488 62.3254 46.0973 62.6154 47.1789C63.4301 49.0368 66.1642 49.8445 68.6166 50.9715C75.6765 53.8349 78.0605 56.905 78.6467 60.5594C79.2112 63.7056 78.5104 65.7466 78.4035 66.0512V66.0512Z" fill="#DF2446"/>
</svg>
