<svg width="90" height="90" viewBox="0 0 90 90" fill="none" xmlns="http://www.w3.org/2000/svg">
<g clip-path="url(#clip0)">
<path d="M83.5845 69.972C78.6745 69.8378 74.9249 70.2965 71.719 71.6525C70.8083 72.0379 69.3545 72.0487 69.2057 73.1936C69.7065 73.7198 69.7845 74.5065 70.1823 75.154C70.9478 76.3958 72.2399 78.0626 73.3931 78.9355C74.6537 79.8902 75.9522 80.9102 77.303 81.7364C79.7054 83.2058 82.3876 84.0457 84.7006 85.5179C86.0642 86.3865 87.4186 87.4797 88.7486 88.4588C89.4068 88.9434 89.8482 89.6964 90.7031 90V89.8608C90.2538 89.2865 90.1379 88.4983 89.7258 87.8989L87.9108 86.0778C86.1365 83.7148 83.8836 81.6388 81.489 79.9153C79.5795 78.54 75.3062 76.6822 74.5099 74.4534L74.3704 74.3134C75.724 74.1598 77.3087 73.6688 78.5586 73.3322C80.6577 72.7679 82.5336 72.9137 84.7006 72.3523L87.6318 71.5118V70.9519C86.5364 69.8242 85.7552 68.3311 84.5611 67.3103C81.4346 64.64 78.0234 61.9719 74.5106 59.7466C72.5618 58.5134 70.1544 57.7116 68.0889 56.6657C67.3942 56.3133 66.1737 56.1302 65.7151 55.5445C64.6297 54.1577 64.0395 52.399 63.2032 50.7832C61.4511 47.3972 59.7304 43.6997 58.1779 40.1371C57.1191 37.708 56.4273 35.3134 55.1066 33.134C48.7678 22.6775 41.9454 16.3671 31.3762 10.1637C29.1269 8.84434 26.419 8.32392 23.5572 7.64198C22.0226 7.54939 20.4866 7.45535 18.9513 7.36132C18.0133 6.96938 17.0389 5.81871 16.1596 5.26025C12.6583 3.04074 3.67668 -1.78663 1.08394 4.56037C-0.553693 8.56654 3.53145 12.4744 4.99166 14.5051C6.01759 15.9278 7.33042 17.525 8.06303 19.1264C8.54523 20.1795 8.62822 21.2354 9.04103 22.3487C10.0548 25.0923 10.9384 28.077 12.2512 30.6116C12.9144 31.8951 13.6456 33.246 14.4848 34.3931C14.9985 35.0973 15.8806 35.4074 16.0194 36.4942C15.158 37.7044 15.1086 39.5837 14.6243 41.117C12.4422 48.0188 13.2657 56.5983 16.4394 61.7063C17.4124 63.2755 19.7068 66.6385 22.8604 65.3478C25.6191 64.2208 25.0031 60.7265 25.7923 57.6441C25.9704 56.9457 25.8609 56.4317 26.2108 55.9637V56.1037L28.7241 61.1457C30.5843 64.1512 33.8839 67.2917 36.6812 69.4107C38.1314 70.5097 39.2732 72.409 41.1484 73.0522V72.9115H41.0089C40.6454 72.3437 40.0767 72.1083 39.6131 71.6517C38.5206 70.5772 37.3058 69.2413 36.4029 68.0102C33.8588 64.5453 31.6109 60.753 29.5626 56.8057C28.5839 54.92 27.7332 52.8412 26.9091 50.9224C26.5914 50.1831 26.5957 49.064 25.9332 48.6814C25.0296 50.0869 23.6996 51.2239 23.0013 52.8835C21.8846 55.5366 21.7407 58.7725 21.3265 62.1277C21.0818 62.2152 21.1906 62.1549 21.0468 62.2669C19.1022 61.7967 18.4197 59.789 17.6964 58.0655C15.8692 53.7083 15.5293 46.6937 17.1376 41.6783C17.554 40.3798 19.4342 36.2939 18.673 35.0944C18.3095 33.8985 17.1104 33.2065 16.4401 32.2928C15.6095 31.1629 14.781 29.6756 14.2051 28.3706C12.7098 24.9746 12.0115 21.1608 10.4368 17.7267C9.68349 16.085 8.41073 14.4233 7.36548 12.9646C6.20861 11.3474 4.91224 10.1565 4.01509 8.20189C3.696 7.50703 3.26316 6.39441 3.73535 5.68017C3.88559 5.19851 4.09879 4.99752 4.57313 4.84032C5.383 4.21366 7.63806 5.04849 8.48084 5.3995C10.7194 6.33267 12.5882 7.22134 14.4848 8.48184C15.3941 9.08768 16.3156 10.2585 17.4159 10.5829H18.6722C20.6375 11.0359 22.8389 10.7229 24.6755 11.2828C27.9207 12.2719 30.8289 13.8117 33.4696 15.4849C41.5154 20.5829 48.0946 27.8387 52.5947 36.4949C53.3187 37.8889 53.6321 39.2183 54.2695 40.697C55.5559 43.6782 57.1763 46.7454 58.4562 49.6612C59.734 52.5698 60.9789 55.505 62.7846 57.9255C63.734 59.1975 67.3999 59.8801 69.0669 60.5872C70.2345 61.0818 72.1483 61.5986 73.2551 62.2669C75.3677 63.5461 77.4153 65.0686 79.3978 66.4698C80.3872 67.1696 83.4329 68.7065 83.5845 69.972ZM21.1849 16.6083C20.1611 16.5889 19.437 16.7203 18.6715 16.8875V17.0275H18.811C19.2997 18.0339 20.1618 18.6828 20.7649 19.5492C21.2299 20.5305 21.6957 21.5103 22.1614 22.4902L22.3002 22.3516C23.1652 21.7393 23.5608 20.7624 23.5558 19.2693C23.2095 18.9039 23.1587 18.4459 22.8583 18.0095C22.4605 17.4274 21.6885 17.0964 21.1849 16.6083Z" fill="#DF2446"/>
</g>
<defs>
<clipPath id="clip0">
<rect width="90" height="90" fill="white"/>
</clipPath>
</defs>
</svg>
