<svg width="90" height="90" viewBox="0 0 90 90" fill="none" xmlns="http://www.w3.org/2000/svg">
<path d="M2.57062 31.6708C2.57062 31.6708 0.442262 30.1303 2.99953 28.0757L8.95359 22.7362C8.95359 22.7362 10.6594 20.9369 12.4615 22.5056L67.4283 64.2206V84.2245C67.4283 84.2245 67.4009 87.366 63.3804 87.0201L2.57062 31.6708Z" fill="#DF2446"/>
<path d="M16.7407 44.5632L2.57064 57.4747C2.57064 57.4747 1.11517 58.5596 2.57064 60.5017L9.14908 66.4972C9.14908 66.4972 10.7114 68.1812 13.0219 66.2666L28.0399 54.8493L16.7407 44.5632Z" fill="#DF2446"/>
<path d="M41.6137 44.6701L67.5963 24.7823L67.4283 4.88592C67.4283 4.88592 66.3187 0.543424 62.6168 2.80538L28.0399 34.3483L41.6137 44.6701Z" fill="#DF2446"/>
<path d="M63.3797 87.0448C64.8879 88.5937 66.7174 88.0854 66.7174 88.0854L86.9653 78.0855C89.5577 76.3137 89.1949 74.1164 89.1949 74.1164V14.3894C89.1949 11.7633 86.5146 10.8569 86.5146 10.8569L68.9639 2.37655C65.1298 0.00068903 62.6168 2.80545 62.6168 2.80545C62.6168 2.80545 65.8462 0.473189 67.4283 4.8867V83.8596C67.4283 84.4031 67.313 84.9354 67.0823 85.4163C66.6211 86.3529 65.6156 87.2233 63.2123 86.8584L63.3797 87.0448Z" fill="#DF2446"/>
</svg>
