<svg width="40" height="40" viewBox="0 0 40 40" fill="none" xmlns="http://www.w3.org/2000/svg">
<path d="M17.7717 0.141478C8.55959 1.16366 1.15035 8.72649 0.148684 17.9245C-1.05232 28.1447 5.15536 36.934 13.9666 39.7957V35.0945C13.9666 35.0945 13.1659 35.2988 12.1643 35.2988C9.36082 35.2988 8.15926 32.8458 7.95881 31.415C7.75892 30.5977 7.35803 29.9841 6.75726 29.3712C6.15648 29.1668 5.95659 29.1668 5.95659 28.9625C5.95659 28.5533 6.55736 28.5533 6.75726 28.5533C7.95881 28.5533 8.96048 29.9841 9.36082 30.5977C10.3619 32.2328 11.5635 32.6415 12.1643 32.6415C12.9655 32.6415 13.5663 32.4372 13.9666 32.2328C14.167 30.802 14.7678 29.3712 15.9694 28.5533C11.3636 27.5317 7.95881 24.8743 7.95881 20.3775C7.95881 18.1288 8.96048 15.8807 10.3619 14.2455C10.162 13.8363 9.9616 12.8147 9.9616 11.3838C9.9616 10.566 9.9616 9.33947 10.5624 8.11296C10.5624 8.11296 13.3658 8.11296 16.1698 10.7703C17.1709 10.3617 18.5729 10.1573 19.9744 10.1573C21.3764 10.1573 22.7778 10.3617 23.9794 10.7703C26.583 8.11296 29.5869 8.11296 29.5869 8.11296C29.9872 9.33947 29.9872 10.566 29.9872 11.3838C29.9872 13.019 29.7873 13.8363 29.5869 14.2455C30.9889 15.8807 31.99 17.9245 31.99 20.3775C31.99 24.8743 28.5858 27.5317 23.9794 28.5533C25.181 29.5755 25.9822 31.415 25.9822 33.2545V40C34.1927 37.3427 40 29.5755 40 20.5818C40 8.31785 29.7873 -1.28936 17.7717 0.141478Z" fill="#181717"/>
</svg>
