<svg width="41" height="40" viewBox="0 0 41 40" fill="none" xmlns="http://www.w3.org/2000/svg">
<g clip-path="url(#clip0)">
<path d="M20.8572 0C20.53 0 20.2029 0.00822259 19.8758 0.0241195C19.5492 0.0400164 19.2226 0.0641359 18.8971 0.096478C18.571 0.128272 18.2461 0.168288 17.9228 0.216527C17.5989 0.264766 17.2762 0.32068 16.9556 0.384268C16.6345 0.448403 16.3151 0.519666 15.9978 0.59915C15.68 0.678635 15.365 0.766342 15.0515 0.861176C14.7381 0.956009 14.4274 1.05907 14.1195 1.16925C13.811 1.27943 13.5059 1.39729 13.2034 1.52227C12.901 1.6478 12.6018 1.78046 12.306 1.92024C12.0101 2.06002 11.7181 2.20748 11.4294 2.36152C11.1407 2.5161 10.8558 2.67726 10.5753 2.84555C10.2943 3.01384 10.0182 3.18871 9.74594 3.3707C9.47369 3.55269 9.20638 3.74072 8.94346 3.93586C8.68054 4.13101 8.42256 4.33219 8.16952 4.53995C7.91648 4.74716 7.66839 4.96094 7.42577 5.18076C7.18371 5.40058 6.94659 5.62642 6.71496 5.85775C6.48388 6.08908 6.25773 6.32644 6.03817 6.56873C5.81862 6.81157 5.60455 7.05934 5.39707 7.31205C5.18959 7.5653 4.98814 7.82294 4.79329 8.08606C4.59788 8.34864 4.40961 8.61614 4.22793 8.88858C4.04624 9.16048 3.87115 9.4373 3.70264 9.71797C3.53413 9.99863 3.3733 10.2831 3.21906 10.572C3.06427 10.8609 2.91717 11.1531 2.7772 11.4491C2.63724 11.7446 2.50495 12.0439 2.37981 12.3464C2.25411 12.6485 2.13665 12.9538 2.02632 13.2619C1.91599 13.5705 1.81335 13.8808 1.71839 14.1943C1.62343 14.5073 1.53616 14.8225 1.45657 15.1405C1.37698 15.4579 1.30562 15.7769 1.2414 16.0981C1.17773 16.4194 1.12174 16.7417 1.07344 17.0651C1.02569 17.3891 0.985619 17.7136 0.953783 18.0397C0.921398 18.3654 0.897247 18.6915 0.881329 19.0188C0.865411 19.3455 0.857178 19.6727 0.857178 20C0.857178 20.3273 0.865411 20.6545 0.881329 20.9812C0.897247 21.3079 0.921398 21.6346 0.953783 21.9603C0.985619 22.2859 1.02569 22.6109 1.07344 22.9344C1.12174 23.2583 1.17773 23.5806 1.2414 23.9019C1.30562 24.2226 1.37698 24.5421 1.45657 24.8595C1.53616 25.1769 1.62343 25.4921 1.71839 25.8057C1.81335 26.1187 1.91599 26.4295 2.02632 26.7376C2.13665 27.0456 2.25411 27.351 2.37981 27.6536C2.50495 27.9561 2.63724 28.2549 2.7772 28.5509C2.91717 28.8469 3.06427 29.1391 3.21906 29.428C3.3733 29.7163 3.53413 30.0014 3.70264 30.282C3.87115 30.5627 4.04624 30.839 4.22793 31.1114C4.40961 31.3833 4.59788 31.6508 4.79329 31.9139C4.98814 32.1765 5.18959 32.4347 5.39707 32.6874C5.60455 32.9407 5.81862 33.1884 6.03817 33.4307C6.25773 33.6736 6.48388 33.9104 6.71496 34.1417C6.94659 34.3736 7.18371 34.5989 7.42577 34.8187C7.66839 35.0385 7.91648 35.2523 8.16952 35.4601C8.42256 35.6678 8.68054 35.869 8.94346 36.0641C9.20638 36.2587 9.47369 36.4473 9.74594 36.6293C10.0182 36.8113 10.2943 36.9862 10.5753 37.1544C10.8558 37.3227 11.1407 37.4839 11.4294 37.6385C11.7181 37.7925 12.0101 37.9394 12.306 38.0798C12.6018 38.2195 12.901 38.3522 13.2034 38.4772C13.5059 38.6027 13.811 38.7206 14.1195 38.8308C14.4274 38.9409 14.7381 39.0434 15.0515 39.1388C15.365 39.2337 15.68 39.3208 15.9978 39.4003C16.3151 39.4798 16.6345 39.5516 16.9556 39.6157C17.2762 39.6793 17.5989 39.7352 17.9228 39.7835C18.2461 39.8312 18.571 39.8712 18.8971 39.9035C19.2226 39.9353 19.5492 39.9594 19.8758 39.9759C20.2029 39.9918 20.53 40 20.8572 40C21.1843 40 21.5115 39.9918 21.8386 39.9759C22.1652 39.9594 22.4918 39.9353 22.8173 39.9035C23.1433 39.8712 23.4683 39.8312 23.7916 39.7835C24.1154 39.7352 24.4382 39.6793 24.7587 39.6157C25.0798 39.5516 25.3993 39.4798 25.7165 39.4003C26.0343 39.3208 26.3494 39.2337 26.6628 39.1388C26.9762 39.0434 27.2869 38.9409 27.5948 38.8308C27.9033 38.7206 28.2085 38.6027 28.5109 38.4772C28.8134 38.3522 29.1125 38.2195 29.4084 38.0798C29.7042 37.9394 29.9962 37.7925 30.285 37.6379C30.5737 37.4839 30.8585 37.3227 31.139 37.1544C31.4201 36.9862 31.6962 36.8113 31.9684 36.6293C32.2407 36.4473 32.508 36.2587 32.7709 36.0641C33.0338 35.869 33.2918 35.6678 33.5448 35.4601C33.7979 35.2523 34.046 35.0385 34.2886 34.8187C34.5306 34.5989 34.7678 34.3736 34.9994 34.1417C35.2305 33.9104 35.4561 33.6736 35.6762 33.4307C35.8957 33.1884 36.1098 32.9407 36.3173 32.6874C36.5248 32.4347 36.7262 32.1765 36.9211 31.9139C37.1165 31.6508 37.3047 31.3833 37.4864 31.1114C37.6681 30.839 37.8432 30.5627 38.0117 30.282C38.1802 30.0014 38.341 29.7163 38.4953 29.428C38.6501 29.1391 38.7972 28.8469 38.9371 28.5509C39.0771 28.2549 39.2094 27.9561 39.3345 27.6536C39.4597 27.351 39.5777 27.0456 39.688 26.7376C39.7984 26.4295 39.901 26.1187 39.996 25.8057C40.0909 25.4921 40.1782 25.1769 40.2578 24.8595C40.3374 24.5421 40.4087 24.2226 40.4729 23.9019C40.5366 23.5806 40.5926 23.2583 40.6409 22.9344C40.6887 22.6109 40.7287 22.2859 40.7606 21.9603C40.793 21.6346 40.8171 21.3079 40.833 20.9812C40.8489 20.6545 40.8572 20.3273 40.8572 20C40.8572 19.6727 40.8489 19.3455 40.833 19.0188C40.8171 18.6915 40.793 18.3654 40.7606 18.0397C40.7287 17.7136 40.6887 17.3891 40.6409 17.0651C40.5926 16.7417 40.5366 16.4194 40.4729 16.0981C40.4087 15.7769 40.3374 15.4579 40.2578 15.1405C40.1782 14.8225 40.0909 14.5073 39.996 14.1943C39.901 13.8808 39.7984 13.5705 39.688 13.2619C39.5777 12.9538 39.4597 12.6485 39.3345 12.3464C39.2094 12.0439 39.0771 11.7446 38.9371 11.4491C38.7972 11.1531 38.6501 10.8609 38.4953 10.572C38.341 10.2831 38.1802 9.99863 38.0117 9.71797C37.8432 9.4373 37.6681 9.16048 37.4864 8.88858C37.3047 8.61614 37.1165 8.34864 36.9211 8.08606C36.7262 7.82294 36.5248 7.5653 36.3173 7.31205C36.1098 7.05934 35.8957 6.81157 35.6762 6.56873C35.4561 6.32644 35.2305 6.08908 34.9994 5.85775C34.7678 5.62642 34.5306 5.40058 34.2886 5.18076C34.046 4.96094 33.7979 4.74716 33.5448 4.53995C33.2918 4.33219 33.0338 4.13101 32.7709 3.93586C32.508 3.74072 32.2407 3.55269 31.9684 3.3707C31.6962 3.18871 31.4201 3.01384 31.139 2.84555C30.8585 2.67726 30.5737 2.5161 30.285 2.36152C29.9962 2.20748 29.7042 2.06002 29.4084 1.92024C29.1125 1.78046 28.8134 1.6478 28.5109 1.52227C28.2085 1.39729 27.9033 1.27943 27.5948 1.16925C27.2869 1.05907 26.9762 0.956009 26.6628 0.861176C26.3494 0.766342 26.0343 0.678635 25.7165 0.59915C25.3993 0.519666 25.0798 0.448403 24.7587 0.384268C24.4382 0.32068 24.1154 0.264766 23.7916 0.216527C23.4683 0.168288 23.1433 0.128272 22.8173 0.096478C22.4918 0.0641359 22.1652 0.0400164 21.8386 0.0241195C21.5115 0.00822259 21.1843 0 20.8572 0Z" fill="#0A66C2"/>
<path d="M10.8575 14.9998H14.8573V29.9994H10.8575V14.9998ZM12.845 12.9995H12.8231C11.6292 12.9995 10.8575 12.1098 10.8575 10.9987C10.8575 9.86343 11.6534 8.99951 12.8681 8.99951C14.085 8.99951 14.8342 9.86343 14.8573 10.9987C14.8573 12.1098 14.085 12.9995 12.845 12.9995ZM31.857 20.4996C31.857 17.4616 29.3952 14.9998 26.3571 14.9998C24.4953 14.9998 22.8524 15.9273 21.8573 17.3438V14.9998H17.857V29.9994H21.8573V21.9994C21.8573 20.3428 23.2004 18.9998 24.857 18.9998C26.5141 18.9998 27.8572 20.3428 27.8572 21.9994V29.9994H31.857C31.857 29.9994 31.857 20.9206 31.857 20.4996Z" fill="#F3F4EF"/>
</g>
<defs>
<clipPath id="clip0">
<rect width="40" height="40" fill="white" transform="translate(0.857178)"/>
</clipPath>
</defs>
</svg>
